<?xml version="1.0" encoding="UTF-8" standalone="no"?>
<svg
   xmlns:dc="http://purl.org/dc/elements/1.1/"
   xmlns:cc="http://creativecommons.org/ns#"
   xmlns:rdf="http://www.w3.org/1999/02/22-rdf-syntax-ns#"
   xmlns:svg="http://www.w3.org/2000/svg"
   xmlns="http://www.w3.org/2000/svg"
   xmlns:sodipodi="http://sodipodi.sourceforge.net/DTD/sodipodi-0.dtd"
   xmlns:inkscape="http://www.inkscape.org/namespaces/inkscape"
   viewBox="0 0 96 96"
   version="1.1"
   id="svg6"
   sodipodi:docname="mouse_pointer.svg"
   inkscape:version="1.0.1 (3bc2e813f5, 2020-09-07)"
   inkscape:export-filename="../../icons/mouse_pointer.png"
   inkscape:export-xdpi="32"
   inkscape:export-ydpi="32">
  <metadata
     id="metadata12">
    <rdf:RDF>
      <cc:Work
         rdf:about="">
        <dc:format>image/svg+xml</dc:format>
        <dc:type
           rdf:resource="http://purl.org/dc/dcmitype/StillImage" />
        <dc:title />
      </cc:Work>
    </rdf:RDF>
  </metadata>
  <defs
     id="defs10" />
  <sodipodi:namedview
     pagecolor="#000000"
     bordercolor="#666666"
     borderopacity="1"
     objecttolerance="10"
     gridtolerance="10"
     guidetolerance="10"
     inkscape:pageopacity="0"
     inkscape:pageshadow="2"
     inkscape:window-width="1920"
     inkscape:window-height="1026"
     id="namedview8"
     showgrid="false"
     inkscape:zoom="8.9166667"
     inkscape:cx="48.11215"
     inkscape:cy="43.514019"
     inkscape:window-x="0"
     inkscape:window-y="0"
     inkscape:window-maximized="1"
     inkscape:current-layer="svg6"
     inkscape:document-rotation="0" />
  <path
     d="M86.1782,60.7291,64.9688,39.52l8.4838-8.4837a6.002,6.002,0,0,0-2.8943-10.0891L15.4139,8.2213A6.0022,6.0022,0,0,0,8.2191,15.416L20.9447,70.56a6.0019,6.0019,0,0,0,10.0891,2.8943l8.4838-8.4837L60.7269,86.18a5.9974,5.9974,0,0,0,8.4838,0L86.1782,69.2129A5.9974,5.9974,0,0,0,86.1782,60.7291ZM64.9688,73.4547,43.7594,52.2454a5.9973,5.9973,0,0,0-8.4837,0l-5.0739,5.0738L22.07,22.0718,57.317,30.204l-5.0738,5.0739a5.9973,5.9973,0,0,0,0,8.4837L73.4526,64.971Z"
     id="path4"
     style="fill:#ffffff;fill-opacity:1" />
</svg>
