<?xml version="1.0" encoding="UTF-8" standalone="no"?>
<svg
   xmlns:dc="http://purl.org/dc/elements/1.1/"
   xmlns:cc="http://creativecommons.org/ns#"
   xmlns:rdf="http://www.w3.org/1999/02/22-rdf-syntax-ns#"
   xmlns:svg="http://www.w3.org/2000/svg"
   xmlns="http://www.w3.org/2000/svg"
   xmlns:sodipodi="http://sodipodi.sourceforge.net/DTD/sodipodi-0.dtd"
   xmlns:inkscape="http://www.inkscape.org/namespaces/inkscape"
   height="24"
   viewBox="0 0 24 24"
   width="24"
   version="1.1"
   id="svg10"
   sodipodi:docname="package.svg"
   inkscape:export-filename="../../icons/package.png"
   inkscape:export-xdpi="128"
   inkscape:export-ydpi="128"
   inkscape:version="1.0.1 (3bc2e813f5, 2020-09-07)">
  <metadata
     id="metadata16">
    <rdf:RDF>
      <cc:Work
         rdf:about="">
        <dc:format>image/svg+xml</dc:format>
        <dc:type
           rdf:resource="http://purl.org/dc/dcmitype/StillImage" />
        <dc:title></dc:title>
      </cc:Work>
    </rdf:RDF>
  </metadata>
  <defs
     id="defs14" />
  <sodipodi:namedview
     pagecolor="#000000"
     bordercolor="#666666"
     borderopacity="1"
     objecttolerance="10"
     gridtolerance="10"
     guidetolerance="10"
     inkscape:pageopacity="0"
     inkscape:pageshadow="2"
     inkscape:window-width="1920"
     inkscape:window-height="1026"
     id="namedview12"
     showgrid="false"
     inkscape:zoom="17.833333"
     inkscape:cx="11.202257"
     inkscape:cy="11.891226"
     inkscape:window-x="0"
     inkscape:window-y="0"
     inkscape:window-maximized="1"
     inkscape:current-layer="svg10" />
  <path
     d="M12.89 1.45l8 4A2 2 0 0 1 22 7.24v9.53a2 2 0 0 1-1.11 1.79l-8 4a2 2 0 0 1-1.79 0l-8-4a2 2 0 0 1-1.1-1.8V7.24a2 2 0 0 1 1.11-1.79l8-4a2 2 0 0 1 1.78 0z"
     fill="none"
     stroke="#0f0f0f"
     stroke-linecap="round"
     stroke-linejoin="round"
     stroke-width="2"
     id="path2"
     style="stroke:#ffffff;stroke-opacity:1" />
  <polyline
     fill="none"
     points="2.32 6.16 12 11 21.68 6.16"
     stroke="#0f0f0f"
     stroke-linecap="round"
     stroke-linejoin="round"
     stroke-width="2"
     id="polyline4"
     style="stroke:#ffffff;stroke-opacity:1" />
  <line
     fill="none"
     stroke="#0f0f0f"
     stroke-linecap="round"
     stroke-linejoin="round"
     stroke-width="2"
     x1="12"
     x2="12"
     y1="22.76"
     y2="11"
     id="line6"
     style="stroke:#ffffff;stroke-opacity:1" />
  <line
     fill="none"
     stroke="#0f0f0f"
     stroke-linecap="round"
     stroke-linejoin="round"
     stroke-width="2"
     x1="7"
     x2="17"
     y1="3.5"
     y2="8.5"
     id="line8"
     style="stroke:#ffffff;stroke-opacity:1" />
</svg>
