{
	"accessors":[
		{
			"componentType":5126,
			"min":[
				-1.0,
				-1.0,
				-1.0
			],
			"bufferView":0,
			"max":[
				1.0,
				1.0,
				1.0
			],
			"count":24,
			"type":"VEC3"
		},
		{
			"componentType":5126,
			"bufferView":1,
			"count":24,
			"type":"VEC3"
		},
		{
			"componentType":5126,
			"bufferView":2,
			"count":24,
			"type":"VEC2"
		},
		{
			"componentType":5123,
			"bufferView":3,
			"count":36,
			"type":"SCALAR"
		}
	],
	"nodes":[
		{
			"name":"Cube",
			"mesh":0
		}
	],
	"buffers":[
		{
			"byteLength":840,
			"uri":"cube.bin"
		}
	],
	"materials":[
		{
			"name":"Material",
			"doubleSided":true,
			"pbrMetallicRoughness":{
				"metallicFactor":0.45833334,
				"roughnessFactor":0.4,
				"baseColorFactor":[
					0.0,
					0.8000001,
					0.006032167,
					1.0
				]
			}
		}
	],
	"scenes":[
		{
			"nodes":[
				0
			],
			"name":"Scene"
		}
	],
	"bufferViews":[
		{
			"byteLength":288,
			"buffer":0
		},
		{
			"byteOffset":288,
			"byteLength":288,
			"buffer":0
		},
		{
			"byteOffset":576,
			"byteLength":192,
			"buffer":0
		},
		{
			"byteOffset":768,
			"byteLength":72,
			"buffer":0
		}
	],
	"asset":{
		"generator":"Thelema Engine 0.3.0",
		"version":"2.0"
	},
	"meshes":[
		{
			"primitives":[
				{
					"indices":3,
					"material":0,
					"attributes":{
						"POSITION":0,
						"TEXCOORD_0":2,
						"NORMAL":1
					}
				}
			],
			"name":"Cube"
		}
	],
	"scene":0
}